{"title":"Heartlock 2018 HDRip AAC 2.0 x264 [MW]","magnet":"magnet:?xt=urn:btih:9d9f91395e27aaf211eb507139d4c566b0cb8eb3&dn=Heartlock+2018+HDRip+AAC+2.0+x264+%5BMW%5D&tr=udp%3A%2F%2Ftracker.leechers-paradise.org%3A6969&tr=udp%3A%2F%2Fzer0day.ch%3A1337&tr=udp%3A%2F%2Fopen.demonii.com%3A1337&tr=udp%3A%2F%2Ftracker.coppersurfer.tk%3A6969&tr=udp%3A%2F%2Fexodus.desync.com%3A6969","uploader":"MFreaky","categoryP":"video","categoryS":"movies","size":"871414365","seeders":"34","leechers":"20","description":" <a href=\"https://pichub.site/image/SePbs\" rel=\"nofollow\" target=\"_NEW\">https://pichub.site/image/SePbs</a> <a href=\"\nhttps://pichub.site/image/SencB\" rel=\"nofollow\" target=\"_NEW\">\nhttps://pichub.site/image/SencB</a> <a href=\"\nhttps://pichub.site/image/SesvY\" rel=\"nofollow\" target=\"_NEW\">\nhttps://pichub.site/image/SesvY</a> <a href=\"\nhttps://pichub.site/image/Se396\" rel=\"nofollow\" target=\"_NEW\">\nhttps://pichub.site/image/Se396</a> <a href=\"\nhttps://pichub.site/image/Se9g4\" rel=\"nofollow\" target=\"_NEW\">\nhttps://pichub.site/image/Se9g4</a> <a href=\"\nhttps://pichub.site/image/SeHXp\" rel=\"nofollow\" target=\"_NEW\">\nhttps://pichub.site/image/SeHXp</a>\r\n\r\nIMDB <a href=\"\nhttps://www.imdb.com/title/tt3329456/\" rel=\"nofollow\" target=\"_NEW\">\nhttps://www.imdb.com/title/tt3329456/</a>\r\n\r\nVideo\r\nID                                       : 1\r\nFormat                                   : AVC\r\nFormat/Info                              : Advanced Video Codec\r\nFormat profile                           : High@L4.1\r\nFormat settings                          : CABAC / 4 Ref Frames\r\nFormat settings, CABAC                   : Yes\r\nFormat settings, RefFrames               : 4 frames\r\nCodec ID                                 : V_MPEG4/ISO/AVC\r\nDuration                                 : 1 h 32 min\r\nBit rate                                 : 1 100 kb/s\r\nWidth                                    : 720 pixels\r\nHeight                                   : 304 pixels\r\nDisplay aspect ratio                     : 2.35:1\r\nFrame rate mode                          : Constant\r\nFrame rate                               : 25.000 FPS\r\nColor space                              : YUV\r\nChroma subsampling                       : 4:2:0\r\nBit depth                                : 8 bits\r\nScan type                                : Progressive\r\nBits/(Pixel*Frame)                       : 0.201\r\nStream size                              : 724 MiB (87%)\r\nWriting library                          : x264 core 155 r2901 7d0ff22\r\nDefault                                  : Yes\r\nForced                                   : No\r\n\r\nAudio\r\nID                                       : 2\r\nFormat                                   : AAC\r\nFormat/Info                              : Advanced Audio Codec\r\nFormat profile                           : LC\r\nCodec ID                                 : A_AAC-2\r\nDuration                                 : 1 h 32 min\r\nBit rate                                 : 161 kb/s\r\nChannel(s)                               : 2 channels\r\nChannel positions                        : Front: L R\r\nSampling rate                            : 48.0 kHz\r\nFrame rate                               : 46.875 FPS (1024 SPF)\r\nCompression mode                         : Lossy\r\nStream size                              : 106 MiB (13%)\r\nLanguage                                 : English\r\nDefault                                  : Yes\r\nForced                                   : No","last_updated":"2018-08-29T12:01:09.360Z","parsed":{"xt":"urn:btih:9d9f91395e27aaf211eb507139d4c566b0cb8eb3","dn":"Heartlock 2018 HDRip AAC 2.0 x264 [MW]","tr":["udp://exodus.desync.com:6969","udp://open.demonii.com:1337","udp://tracker.coppersurfer.tk:6969","udp://tracker.leechers-paradise.org:6969","udp://zer0day.ch:1337"],"infoHash":"9d9f91395e27aaf211eb507139d4c566b0cb8eb3","infoHashBuffer":{"type":"Buffer","data":[157,159,145,57,94,39,170,242,17,235,80,113,57,212,197,102,176,203,142,179]},"name":"Heartlock 2018 HDRip AAC 2.0 x264 [MW]","announce":["udp://exodus.desync.com:6969","udp://open.demonii.com:1337","udp://tracker.coppersurfer.tk:6969","udp://tracker.leechers-paradise.org:6969","udp://zer0day.ch:1337"],"urlList":[]}}